HIERARCHY
ROOT hip
{
  OFFSET 0 0 0
  CHANNELS 6 Xposition Yposition Zposition Zrotation Yrotation Xrotation
  JOINT abdomen
  {
    OFFSET 0 20.6881 -0.73152
    CHANNELS 3 Zrotation Xrotation Yrotation
    JOINT chest
    {
      OFFSET 0 11.7043 -0.48768
      CHANNELS 3 Zrotation Xrotation Yrotation
      JOINT neck
      {
        OFFSET 0 22.1894 -2.19456
        CHANNELS 3 Zrotation Xrotation Yrotation
        JOINT head
        {
          OFFSET -0.24384 7.07133 1.2192
          CHANNELS 3 Zrotation Xrotation Yrotation
          JOINT leftEye
          {
            OFFSET 4.14528 8.04674 8.04672
            CHANNELS 3 Zrotation Xrotation Yrotation
            End Site
            {
              OFFSET 1 0 0
            }
          }
          JOINT rightEye
          {
            OFFSET -3.6576 8.04674 8.04672
            CHANNELS 3 Zrotation Xrotation Yrotation
            End Site
            {
              OFFSET 1 0 0
            }
          }
        }
      }
      JOINT rCollar
      {
        OFFSET -2.68224 19.2634 -4.8768
        CHANNELS 3 Zrotation Xrotation Yrotation
        JOINT rShldr
        {
          OFFSET -8.77824 -1.95073 1.46304
          CHANNELS 3 Zrotation Xrotation Yrotation
          JOINT rForeArm
          {
            OFFSET -28.1742 -1.7115 0.48768
            CHANNELS 3 Zrotation Xrotation Yrotation
            JOINT rHand
            {
              OFFSET -22.5879 0.773209 7.07136
              CHANNELS 3 Zrotation Xrotation Yrotation
              JOINT rThumb1
              {
                OFFSET -1.2192 -0.487915 3.41376
                CHANNELS 3 Zrotation Xrotation Yrotation
                JOINT rThumb2
                {
                  OFFSET -3.37035 -0.52449 3.41376
                  CHANNELS 3 Zrotation Xrotation Yrotation
                  End Site
                  {
                    OFFSET -1.78271 -1.18214 1.43049
                  }
                }
              }
              JOINT rIndex1
              {
                OFFSET -7.75947 0.938293 5.60832
                CHANNELS 3 Zrotation Xrotation Yrotation
                JOINT rIndex2
                {
                  OFFSET -2.54057 -0.884171 1.56538
                  CHANNELS 3 Zrotation Xrotation Yrotation
                  End Site
                  {
                    OFFSET -1.62519 -0.234802 1.16502
                  }
                }
              }
              JOINT rMid1
              {
                OFFSET -8.24714 1.18213 3.41376
                CHANNELS 3 Zrotation Xrotation Yrotation
                JOINT rMid2
                {
                  OFFSET -3.10165 -0.590103 1.0647
                  CHANNELS 3 Zrotation Xrotation Yrotation
                  End Site
                  {
                    OFFSET -2.48547 -0.328903 0.83742
                  }
                }
              }
              JOINT rRing1
              {
                OFFSET -8.82822 0.546677 1.51678
                CHANNELS 3 Zrotation Xrotation Yrotation
                JOINT rRing2
                {
                  OFFSET -2.60934 -0.819778 -0.0198488
                  CHANNELS 3 Zrotation Xrotation Yrotation
                  End Site
                  {
                    OFFSET -2.33842 -0.294052 0.168128
                  }
                }
              }
              JOINT rPinky1
              {
                OFFSET -8.27202 -0.0477905 -0.4584
                CHANNELS 3 Zrotation Xrotation Yrotation
                JOINT rPinky2
                {
                  OFFSET -1.82734 -0.647385 -0.700984
                  CHANNELS 3 Zrotation Xrotation Yrotation
                  End Site
                  {
                    OFFSET -1.69225 -0.51767 -0.607171
                  }
                }
              }
            }
          }
        }
      }
      JOINT lCollar
      {
        OFFSET 2.68224 19.2634 -4.8768
        CHANNELS 3 Zrotation Xrotation Yrotation
        JOINT lShldr
        {
          OFFSET 8.77824 -1.95073 1.46304
          CHANNELS 3 Zrotation Xrotation Yrotation
          JOINT lForeArm
          {
            OFFSET 28.1742 -1.7115 0.48768
            CHANNELS 3 Zrotation Xrotation Yrotation
            JOINT lHand
            {
              OFFSET 22.5879 0.773209 7.07136
              CHANNELS 3 Zrotation Xrotation Yrotation
              JOINT lThumb1
              {
                OFFSET 1.2192 -0.487915 3.41376
                CHANNELS 3 Zrotation Xrotation Yrotation
                JOINT lThumb2
                {
                  OFFSET 3.37035 -0.52449 3.41376
                  CHANNELS 3 Zrotation Xrotation Yrotation
                  End Site
                  {
                    OFFSET 1.78271 -1.18214 1.43049
                  }
                }
              }
              JOINT lIndex1
              {
                OFFSET 7.75947 0.938293 5.60832
                CHANNELS 3 Zrotation Xrotation Yrotation
                JOINT lIndex2
                {
                  OFFSET 2.54057 -0.884171 1.56538
                  CHANNELS 3 Zrotation Xrotation Yrotation
                  End Site
                  {
                    OFFSET 1.62519 -0.234802 1.16502
                  }
                }
              }
              JOINT lMid1
              {
                OFFSET 8.24714 1.18213 3.41376
                CHANNELS 3 Zrotation Xrotation Yrotation
                JOINT lMid2
                {
                  OFFSET 3.10165 -0.590103 1.0647
                  CHANNELS 3 Zrotation Xrotation Yrotation
                  End Site
                  {
                    OFFSET 2.48547 -0.328903 0.83742
                  }
                }
              }
              JOINT lRing1
              {
                OFFSET 8.82822 0.546677 1.51678
                CHANNELS 3 Zrotation Xrotation Yrotation
                JOINT lRing2
                {
                  OFFSET 2.60934 -0.819778 -0.0198488
                  CHANNELS 3 Zrotation Xrotation Yrotation
                  End Site
                  {
                    OFFSET 2.33842 -0.294052 0.168128
                  }
                }
              }
              JOINT lPinky1
              {
                OFFSET 8.27202 -0.0477905 -0.4584
                CHANNELS 3 Zrotation Xrotation Yrotation
                JOINT lPinky2
                {
                  OFFSET 1.82734 -0.647385 -0.700984
                  CHANNELS 3 Zrotation Xrotation Yrotation
                  End Site
                  {
                    OFFSET 1.69225 -0.51767 -0.607171
                  }
                }
              }
            }
          }
        }
      }
    }
  }
  JOINT rButtock
  {
    OFFSET -8.77824 4.35084 1.2192
    CHANNELS 3 Zrotation Xrotation Yrotation
    JOINT rThigh
    {
      OFFSET 0 -1.70687 -2.19456
      CHANNELS 3 Zrotation Xrotation Yrotation
      JOINT rShin
      {
        OFFSET 0 -36.8199 0.73152
        CHANNELS 3 Zrotation Xrotation Yrotation
        JOINT rFoot
        {
          OFFSET 0.73152 -45.1104 -5.12064
          CHANNELS 3 Zrotation Xrotation Yrotation
          End Site
          {
            OFFSET -1.1221 -3.69964 12.103
          }
        }
      }
    }
  }
  JOINT lButtock
  {
    OFFSET 8.77824 4.35084 1.2192
    CHANNELS 3 Zrotation Xrotation Yrotation
    JOINT lThigh
    {
      OFFSET 0 -1.70687 -2.19456
      CHANNELS 3 Zrotation Xrotation Yrotation
      JOINT lShin
      {
        OFFSET 0 -36.8199 0.73152
        CHANNELS 3 Zrotation Xrotation Yrotation
        JOINT lFoot
        {
          OFFSET -0.73152 -45.1104 -5.12064
          CHANNELS 3 Zrotation Xrotation Yrotation
          End Site
          {
            OFFSET 1.1221 -3.69964 12.103
          }
        }
      }
    }
  }
}
MOTION
Frames:	4
Frame Time:	0.03333
0.0 0.0 0.0 0.0 0.0 0.0 0.0 0.0 0.0 0.0 0.0 0.0 0.0 0.0 0.0 0.0 0.0 0.0 0.0 0.0 0.0 0.0 0.0 0.0 0.0 0.0 0.0 0.0 0.0 0.0 0.0 0.0 0.0 0.0 0.0 0.0 0.0 0.0 0.0 0.0 0.0 0.0 0.0 0.0 0.0 0.0 0.0 0.0 0.0 0.0 0.0 0.0 0.0 0.0 0.0 0.0 0.0 0.0 0.0 0.0 0.0 0.0 0.0 0.0 0.0 0.0 0.0 0.0 0.0 0.0 0.0 0.0 0.0 0.0 0.0 0.0 0.0 0.0 0.0 0.0 0.0 0.0 0.0 0.0 0.0 0.0 0.0 0.0 0.0 0.0 0.0 0.0 0.0 0.0 0.0 0.0 0.0 0.0 0.0 0.0 0.0 0.0 0.0 0.0 0.0 0.0 0.0 0.0 0.0 0.0 0.0 0.0 0.0 0.0 0.0 0.0 0.0 0.0 0.0 0.0 0.0 0.0 0.0 0.0 0.0 0.0 0.0 0.0 0.0 0.0 0.0 0.0
-0.4308 72.5077 -0.5241 -178.936017 0.087131 -176.151729 -0.712319 0.982108 -118.406316 3.897494 3.277611 121.75496 -11.147207 26.369626 -116.158363 26.039422 24.837725 100.243766 -0.000399 0.0 -0.003962 0.000323 0.0 0.001656 3.192632 -25.83888 -5.07377 76.278656 -39.460538 72.732868 -17.35482 56.338924 122.647071 -6.152793 43.205586 4.836662 -1.509005 1.483272 0.250571 -8.479474 9.344967 8.131125 -140.685642 1.505395 116.181789 -6.369752 26.805955 -1.895565 6.532736 -20.415046 -2.716467 -167.389264 -17.300607 144.215132 0.005378 1.854062 0.584821 9.546491 -62.555086 -9.193956 -159.756692 65.345611 -151.087927 -161.348759 52.528985 -147.500478 129.707051 55.102849 -133.554225 -96.748034 56.225524 133.15945 149.445131 72.695472 106.637399 7.121819 40.273749 -3.787794 95.361117 37.750052 -54.682327 -18.995449 -27.925029 -23.403873 150.885193 -16.291046 -120.979825 169.647396 -31.645479 -118.357733 89.83587 60.70171 -81.262445 163.825179 -7.044434 -143.376515 145.118531 0.186326 179.185007 -11.307198 15.595802 7.175496 145.256751 12.332554 141.895462 155.462808 36.353741 145.914291 179.99567 75.749858 0.002962 -175.726354 34.940599 -24.802015 -54.337367 61.930363 -13.016608 146.08515 25.210018 -28.298635 0.001841 0.000937 0.001841 -13.275419 -41.697698 160.471133 48.313383 -69.707696 123.134761 -134.250809 54.049068 -133.78005
-0.5705 72.6181 -1.1186 -179.634081 -0.023212 -176.153116 -4.738657 5.310599 0.242539 3.427297 -9.031289 3.772951 7.591626 23.217096 117.361203 -25.283736 20.034606 -126.248952 -0.000348 0.0 -0.002829 -0.000348 0.0 -0.002829 -81.978877 68.329037 85.092491 -104.614352 -74.791915 -81.397768 -13.141 -40.696439 93.049373 -5.203438 41.17582 4.75595 -4.034698 3.931643 0.75491 8.500652 -10.006988 -3.818826 179.292109 -59.502041 116.315703 -46.008353 54.463776 35.396661 -0.571553 1.648282 0.322043 -163.724381 -6.175044 143.493044 -0.019877 -1.726251 -0.541186 -61.247371 -86.797904 -82.935522 26.971475 80.122707 10.13991 -128.580506 -29.637143 -125.512787 150.037731 21.979429 -155.12599 56.509401 -25.001162 66.283916 7.962784 54.838659 123.145593 -148.047146 -45.000745 -133.531933 -4.417487 -4.400395 0.511526 -8.446333 -14.787264 10.044597 26.599106 30.072871 -19.415526 -5.013036 4.219581 0.697485 82.840318 61.110576 -74.53245 42.122955 58.441853 -36.388664 0.000196 -0.018798 0.003803 150.839556 35.184164 -165.824331 126.79577 -26.620033 124.513916 9.260463 -24.22159 12.262752 -0.000391 0.001707 0.000503 2.454794 -44.861684 1.766713 29.490334 73.064853 10.909518 -94.337684 35.59637 5.26142 -0.002848 -0.001154 -0.001424 -12.460921 -38.880978 -19.394274 -41.681097 64.876115 -44.480638 131.361687 -55.323186 -161.284931
-0.654 72.93230000000001 -2.2292 179.73206 0.829294 -176.996858 -9.261916 5.11903 80.889068 -6.460027 -7.113852 -76.787009 1.401308 29.607149 170.270161 -6.774629 37.521416 179.698247 0.000762 -0.0 -0.000532 0.000762 -0.0 -0.000532 -149.904996 22.421957 154.975861 165.744668 41.890794 -137.415261 71.656386 47.981916 51.362215 -151.251949 74.648488 135.973758 -0.543548 0.536393 0.085821 30.665964 -50.396203 -17.4925 -145.338789 -6.264191 118.678138 -172.627945 -34.655832 117.526215 -0.571358 1.648361 0.321561 -159.235485 7.057419 141.698599 -70.380762 -72.129502 -87.280388 14.727873 0.863804 -4.414579 -0.343807 -0.890251 -0.31912 -159.972696 57.032423 -150.116263 14.54483 43.660961 -16.414336 54.883222 -4.765002 -29.942214 3.003297 74.903622 125.153605 -151.334875 -40.880166 -136.570911 0.441182 0.435485 -0.068945 6.000792 6.876527 -5.34624 108.427208 34.161768 -91.743745 -109.458131 -67.756821 -59.100304 171.8695 -41.091227 -145.160829 37.595969 56.259495 -31.935596 0.016344 -1.323106 0.416134 148.089984 -76.783021 171.06864 157.332864 57.246724 150.508782 -10.465607 26.383188 -4.403158 -179.98496 75.750352 -0.01029 -179.840408 24.39596 3.76583 138.663717 83.217672 77.93961 61.819278 -24.861924 159.464878 -179.995114 75.749183 -0.005041 167.191637 37.647863 7.702895 -3.844668 64.736363 -12.810482 -45.764731 -50.890802 10.376497
